<svg fill="none" viewBox="0 0 162 32" height="32" aria-hidden="true" astro-icon="open-in-stackblitz"><path fill="#1374EF" d="M158 0H4a4 4 0 0 0-4 4v24a4 4 0 0 0 4 4h154a4 4 0 0 0 4-4V4a4 4 0 0 0-4-4Z"></path><path fill="#1269D3" d="M33 0h-1v32h1V0Z"></path><path fill="#fff" d="M10 17.588h5.165L12.127 25 22 14.412h-5.165L19.873 7 10 17.588ZM44.99 20.717c.846 0 1.576-.185 2.19-.554a3.669 3.669 0 0 0 1.415-1.584c.334-.682.5-1.489.5-2.42v-.012c0-.931-.166-1.738-.5-2.42a3.669 3.669 0 0 0-1.42-1.577c-.614-.37-1.343-.554-2.186-.554-.839 0-1.567.184-2.185.554-.614.369-1.09.895-1.427 1.577-.333.678-.5 1.485-.5 2.42v.012c0 .931.167 1.738.5 2.42a3.72 3.72 0 0 0 1.415 1.584c.614.37 1.346.554 2.197.554Zm0-1.343c-.523 0-.974-.132-1.355-.397-.378-.265-.669-.638-.873-1.12-.201-.482-.301-1.048-.301-1.698v-.012c0-.654.102-1.22.306-1.698.21-.481.502-.852.88-1.113.38-.265.828-.398 1.342-.398.518 0 .965.133 1.343.398.377.26.668.632.873 1.113.208.478.313 1.044.313 1.698v.012c0 .65-.105 1.216-.313 1.698-.205.482-.496.855-.873 1.12-.378.265-.825.397-1.343.397ZM50.72 22.685h1.5v-3.233h.102c.116.237.273.442.47.614.196.173.425.308.686.404.26.092.542.138.843.138.554 0 1.031-.136 1.433-.409.405-.277.718-.668.939-1.174.22-.506.331-1.108.331-1.806v-.012c0-.695-.112-1.295-.337-1.8-.22-.51-.534-.903-.94-1.18-.4-.277-.876-.416-1.426-.416-.31 0-.592.046-.849.139a2.153 2.153 0 0 0-.68.391c-.193.169-.35.371-.47.608h-.102v-1.03h-1.5v8.766Zm3.131-3.34a1.53 1.53 0 0 1-.879-.254 1.67 1.67 0 0 1-.578-.734c-.132-.321-.198-.703-.198-1.144V17.2c0-.442.066-.821.198-1.138.137-.317.328-.56.572-.729.25-.172.544-.258.885-.258.342 0 .635.086.88.258.244.169.433.412.565.729.133.317.199.698.199 1.144v.012c0 .437-.066.817-.199 1.138a1.648 1.648 0 0 1-.566.734 1.511 1.511 0 0 1-.879.253ZM61.353 20.632c.445 0 .837-.056 1.174-.168a2.87 2.87 0 0 0 .855-.452c.237-.188.423-.391.56-.608.14-.22.236-.437.289-.65l.012-.054h-1.421l-.018.042c-.048.1-.133.207-.253.32a1.62 1.62 0 0 1-.476.282 1.881 1.881 0 0 1-.692.114c-.345 0-.644-.076-.897-.228a1.555 1.555 0 0 1-.578-.663c-.136-.289-.205-.636-.205-1.041v-.602c0-.422.069-.777.205-1.066.14-.293.33-.514.566-.662.24-.153.516-.229.825-.229.309 0 .58.072.812.217.237.144.422.361.554.65.133.29.199.652.199 1.09v.596l.71-.94h-4.611v1.006h5.346v-.494c0-.662-.123-1.24-.367-1.733a2.72 2.72 0 0 0-1.048-1.15c-.45-.277-.987-.416-1.613-.416-.623 0-1.164.143-1.626.428a2.813 2.813 0 0 0-1.072 1.192c-.248.513-.373 1.116-.373 1.806v.006c0 .698.127 1.302.38 1.812.252.51.611.903 1.077 1.18.47.277 1.032.415 1.686.415ZM65.808 20.5h1.5v-3.835c0-.33.057-.614.174-.855.116-.24.283-.427.5-.56a1.45 1.45 0 0 1 .77-.199c.454 0 .787.129 1 .386.216.257.325.642.325 1.156V20.5h1.499v-4.256c0-.783-.195-1.387-.584-1.813-.39-.425-.952-.638-1.686-.638-.474 0-.869.1-1.186.301-.317.2-.554.48-.71.837h-.103V13.92h-1.499v6.58ZM76.651 20.5h1.493v-6.58h-1.493v6.58Zm.752-7.682a.853.853 0 0 0 .627-.26.836.836 0 0 0 .265-.62.83.83 0 0 0-.265-.625.853.853 0 0 0-.627-.26.873.873 0 0 0-.632.26.83.83 0 0 0-.264.626c0 .24.088.447.264.62a.873.873 0 0 0 .632.259ZM79.992 20.5h1.5v-3.835c0-.33.058-.614.174-.855.116-.24.283-.427.5-.56a1.45 1.45 0 0 1 .77-.199c.454 0 .787.129 1 .386.216.257.325.642.325 1.156V20.5h1.499v-4.256c0-.783-.195-1.387-.584-1.813-.39-.425-.951-.638-1.686-.638-.473 0-.869.1-1.186.301-.317.2-.554.48-.71.837h-.102V13.92h-1.5v6.58ZM93.99 20.717c.694 0 1.294-.113 1.8-.337.51-.225.901-.542 1.174-.952.277-.41.416-.895.416-1.457v-.006c0-.658-.205-1.18-.614-1.565-.406-.39-1.066-.68-1.981-.873l-.933-.199c-.542-.112-.934-.268-1.174-.47a.952.952 0 0 1-.356-.758v-.006c0-.249.07-.461.211-.638.145-.177.341-.313.59-.41.249-.1.532-.15.849-.15.333 0 .624.05.873.15.249.1.448.237.596.41.153.169.247.367.283.596l.012.072h1.481l-.006-.078a2.36 2.36 0 0 0-.451-1.252c-.27-.37-.639-.66-1.108-.873-.47-.217-1.026-.325-1.668-.325-.626 0-1.182.11-1.668.33a2.74 2.74 0 0 0-1.138.91 2.31 2.31 0 0 0-.409 1.36v.007c0 .646.2 1.178.602 1.595.406.413 1.054.714 1.945.903l.933.193c.562.12.965.28 1.21.481a.935.935 0 0 1 .367.765v.006c0 .249-.076.47-.228.662a1.523 1.523 0 0 1-.633.446 2.465 2.465 0 0 1-.927.162c-.365 0-.69-.05-.975-.15a1.775 1.775 0 0 1-.687-.428 1.065 1.065 0 0 1-.288-.638l-.006-.06h-1.506l.006.084c.037.498.197.933.482 1.307.285.373.674.664 1.168.873.498.208 1.084.313 1.758.313ZM101.558 20.53a4.561 4.561 0 0 0 .776-.066v-1.156l-.24.024a4.74 4.74 0 0 1-.265.006c-.309 0-.534-.074-.675-.223-.136-.152-.204-.391-.204-.716V15.08h1.384V13.92h-1.384v-1.614h-1.523v1.614h-1.024v1.162h1.023v3.672c0 .63.167 1.084.5 1.36.333.278.877.416 1.632.416ZM105.628 20.608c.293 0 .562-.04.806-.12.245-.08.462-.197.651-.35.192-.152.349-.332.469-.541h.103v.903h1.481v-4.497c0-.462-.103-.857-.307-1.186a1.93 1.93 0 0 0-.897-.759c-.394-.177-.875-.265-1.445-.265-.518 0-.976.076-1.373.229a2.356 2.356 0 0 0-.957.644c-.241.277-.386.6-.434.97l-.006.054h1.415l.006-.024a.89.89 0 0 1 .44-.5c.216-.12.495-.18.836-.18.41 0 .719.087.928.264.208.173.313.424.313.753v2.083c0 .26-.069.495-.205.704a1.446 1.446 0 0 1-.56.488c-.237.12-.506.18-.807.18-.333 0-.608-.078-.825-.234a.77.77 0 0 1-.319-.657v-.012c0-.273.101-.485.301-.638.201-.152.512-.24.934-.265l2.221-.144v-.988l-2.432.151c-.803.044-1.421.235-1.854.572-.43.337-.645.799-.645 1.385v.012c0 .401.093.75.277 1.047.189.293.446.52.771.68.329.161.7.241 1.114.241ZM113.761 20.632c.558 0 1.036-.092 1.433-.277.398-.188.715-.451.951-.788.241-.337.398-.729.47-1.174l.006-.054-1.409.006-.012.024c-.092.345-.259.606-.499.782-.237.177-.55.265-.94.265a1.46 1.46 0 0 1-.873-.259c-.24-.176-.427-.429-.56-.758-.128-.333-.192-.733-.192-1.198v-.012c0-.462.064-.855.192-1.18.129-.325.314-.574.554-.747.245-.172.538-.259.879-.259.41 0 .735.103.976.307.245.205.401.468.469.789l.006.018h1.415v-.024a2.594 2.594 0 0 0-.445-1.198 2.37 2.37 0 0 0-.97-.807c-.405-.196-.891-.295-1.457-.295-.658 0-1.222.137-1.691.41-.47.269-.829.656-1.078 1.162-.249.505-.373 1.113-.373 1.824v.012c0 .714.124 1.328.373 1.842s.608.907 1.078 1.18c.469.273 1.035.41 1.697.41ZM118.114 20.5h1.499v-9.127h-1.499V20.5Zm4.136 0h1.8l-2.901-3.901-1.114.915 2.215 2.986Zm-2.763-2.18.843-.86.686-.536 2.86-3.004h-1.734l-2.426 2.703h-.283l.054 1.698ZM126.14 20.5h2.938c.618 0 1.149-.098 1.595-.295.445-.2.787-.486 1.023-.855.241-.37.362-.807.362-1.312v-.012c0-.374-.085-.71-.253-1.012a1.95 1.95 0 0 0-.693-.728 2.242 2.242 0 0 0-1.023-.338v-.108c.293-.048.554-.16.783-.337.232-.177.417-.397.554-.662.14-.265.21-.55.21-.855v-.012c0-.446-.106-.83-.319-1.15a2.03 2.03 0 0 0-.909-.747c-.393-.176-.867-.265-1.421-.265h-2.847v1.205h2.474c.47 0 .835.108 1.096.325.261.216.391.517.391.903v.012c0 .393-.144.694-.433.903-.285.208-.703.313-1.253.313h-2.275v1.102h2.516c.397 0 .731.05 1 .15.272.1.477.251.614.452.136.2.204.447.204.74v.012c0 .442-.148.78-.445 1.018-.297.233-.733.349-1.307.349h-2.582V20.5Zm-.777 0h1.553v-8.688h-1.553V20.5ZM133.659 20.5h1.499v-9.127h-1.499V20.5ZM137.061 20.5h1.493v-6.58h-1.493v6.58Zm.752-7.682a.851.851 0 0 0 .626-.26.835.835 0 0 0 .265-.62.83.83 0 0 0-.265-.625.851.851 0 0 0-.626-.26.873.873 0 0 0-.632.26.833.833 0 0 0-.265.626c0 .24.089.447.265.62a.873.873 0 0 0 .632.259ZM142.991 20.53a4.561 4.561 0 0 0 .777-.066v-1.156l-.241.024a4.715 4.715 0 0 1-.265.006c-.309 0-.534-.074-.674-.223-.137-.152-.205-.391-.205-.716V15.08h1.385V13.92h-1.385v-1.614h-1.523v1.614h-1.024v1.162h1.024v3.672c0 .63.166 1.084.499 1.36.334.278.877.416 1.632.416ZM145.116 20.5h5.334v-1.156h-3.437v-.102l3.383-4.323v-1h-5.25v1.162h3.48v.103l-3.51 4.4v.916Z"></path></svg>
